<svg xmlns="http://www.w3.org/2000/svg" version="1.1" xmlns:xlink="http://www.w3.org/1999/xlink" xmlns:svgjs="http://svgjs.dev/svgjs" width="1280" height="800" preserveAspectRatio="none" viewBox="0 0 1280 800"><g mask="url(&quot;#SvgjsMask1035&quot;)" fill="none"><rect width="1280" height="800" x="0" y="0" fill="rgba(255, 255, 255, 1)"></rect><path d="M0 60.87C60.5 60.87 97.56 128.9 192 200C197.56 204.18 196.32 211.43 200 211.43C203.44 211.43 203.51 205.91 206.25 200C252.53 100.19 231.84 68.34 298.04 0C328.71 -31.66 349.02 0 400 0C500 0 500 0 600 0C700 0 700 0 800 0C842.5 0 885 -25.69 885 0C885 55.26 840.44 80.04 800 161.9C791.04 180.04 786.21 181.96 786.21 200C786.21 210.31 792.18 210.07 800 218.6C883.86 310.07 919.26 294.46 969.57 400C1010.17 485.16 1020.44 518.95 981.82 600C935.66 696.87 887.67 755.84 800 755.84C719.83 755.84 699.05 691.33 646.15 600C599.05 518.67 623.82 410.53 600 410.53C576.09 410.53 561.23 503.7 550.68 600C539.9 698.43 599.51 744.02 557.33 800C524.17 844.02 478.66 800 400 800C300 800 300 800 200 800C100 800 61.7 838.3 0 800C-38.3 776.23 -30.35 720.01 0 675.86C38.4 620.01 137.5 641.5 137.5 600C137.5 555.74 42.36 565.96 0 504.35C-26.39 465.96 0 452.17 0 400C0 300 0 300 0 200C0 130.44 -35.5 60.87 0 60.87" stroke="rgba(240, 96, 12, 1)" stroke-width="2"></path><path d="M1090.91 200C1097.57 101.61 1021.78 58.14 1053.49 0C1076.32 -41.86 1126.74 0 1200 0C1300 0 1350 -50 1400 0C1450 50 1400 100 1400 200C1400 267.69 1418.83 275.32 1400 335.38C1387.48 375.32 1369.45 368.49 1337.31 400C1269.45 466.52 1272.45 531.43 1200 531.43C1117.01 531.43 1054.18 484.33 1026.42 400C999.63 318.61 1084.03 301.61 1090.91 200" stroke="rgba(240, 96, 12, 1)" stroke-width="2"></path><path d="M1257.14 800C1257.14 774.47 1353.88 706.25 1400 706.25C1425.31 706.25 1428.3 781.43 1400 800C1356.87 828.3 1257.14 821.34 1257.14 800" stroke="rgba(240, 96, 12, 1)" stroke-width="2"></path><path d="M0 133.33C28.99 133.33 92 159.25 92 200C92 256.47 25.39 327.78 0 327.78C-20.61 327.78 0 263.89 0 200C0 166.67 -17.01 133.33 0 133.33" stroke="rgba(240, 96, 12, 1)" stroke-width="2"></path><path d="M284.38 200C339.84 99.79 339.24 98.32 396.08 0C397.05 -1.68 398.04 0 400 0C500 0 500 0 600 0C673.34 0 725.84 -41.66 746.67 0C775.84 58.34 742.59 110.14 700 200C669.26 264.86 662.34 274.48 600 309.43C512.34 358.57 499.57 337.44 400 368.18C352.9 382.72 306.67 382.77 306.67 400C306.67 417.6 368.72 402.19 400 437.84C456.48 502.19 460.61 513.82 482.19 600C505.95 694.9 518.95 731.17 490.67 800C477.86 831.17 445.34 800 400 800C300 800 300 800 200 800C114.59 800 29.17 829.58 29.17 800C29.17 762.36 115.02 733.33 200 665.57C240.44 633.33 280 640.35 280 600C280 536.13 249.38 520.37 200 457.14C171.28 420.37 123.81 426.6 123.81 400C123.81 375.18 173.05 387.86 200 354.29C253.34 287.86 241.8 276.93 284.38 200" stroke="rgba(240, 96, 12, 1)" stroke-width="2"></path><path d="M1200 194.87C1153.27 99.86 1111.63 68.96 1111.63 0C1111.63 -28.48 1155.82 0 1200 0C1300 0 1350 -50 1400 0C1450 50 1400 100 1400 200C1400 229.23 1421.59 258.46 1400 258.46C1326.59 258.46 1304.65 230.09 1210 200C1204.65 198.3 1202.45 199.86 1200 194.87" stroke="rgba(240, 96, 12, 1)" stroke-width="2"></path><path d="M726.32 400C741.08 356.4 764.71 334.88 800 334.88C831.99 334.88 844.8 359.83 860.87 400C897.83 492.39 924.16 513.49 906.06 600C893.73 658.94 851.14 690.91 800 690.91C753.24 690.91 724.59 656.58 710.26 600C687.75 511.13 696.21 488.96 726.32 400" stroke="rgba(240, 96, 12, 1)" stroke-width="2"></path><path d="M1120.75 400C1120.75 315.28 1164.01 209.09 1200 209.09C1234.98 209.09 1262.69 312.38 1262.69 400C1262.69 437.84 1233.08 460 1200 460C1162.11 460 1120.75 440.74 1120.75 400" stroke="rgba(240, 96, 12, 1)" stroke-width="2"></path><path d="M362.5 200C362.5 167.51 367.8 148.83 400 133.33C486.55 91.68 531.47 64.34 600 85.71C638.37 97.68 613.79 145.06 613.79 200C613.79 209.75 609.74 212.6 600 215.09C502.85 239.88 489.64 260.25 400 254.55C370.89 252.7 362.5 228.12 362.5 200" stroke="rgba(240, 96, 12, 1)" stroke-width="2"></path><path d="M1200 66.67C1171.33 46.74 1169.77 23.59 1169.77 0C1169.77 -9.74 1184.89 0 1200 0C1300 0 1344.44 -44.44 1400 0C1444.44 35.56 1442.03 145.99 1400 160C1342.03 179.33 1286.44 126.74 1200 66.67" stroke="rgba(240, 96, 12, 1)" stroke-width="2"></path><path d="M380 600C392.62 588.98 391.14 572.97 400 572.97C407.99 572.97 412.12 585.08 413.7 600C424.12 698.6 430.12 710.7 424 800C423.27 810.7 412 800 400 800C300 800 300 800 200 800C166.67 800 133.33 811.54 133.33 800C133.33 785.31 167.05 774.25 200 747.54C290.39 674.25 292.62 676.27 380 600" stroke="rgba(240, 96, 12, 1)" stroke-width="2"></path><path d="M774.36 600C774.36 555.76 786.11 504.76 800 504.76C814.08 504.76 830.3 556.69 830.3 600C830.3 617.29 814.61 625.97 800 625.97C786.64 625.97 774.36 616.37 774.36 600" stroke="rgba(240, 96, 12, 1)" stroke-width="2"></path></g><defs><mask id="SvgjsMask1035"><rect width="1280" height="800" fill="#ffffff"></rect></mask></defs></svg>